<svg width="40" height="40" viewBox="0 0 40 40" fill="none" xmlns="http://www.w3.org/2000/svg">
<path d="M39.8729 17.6966C39.7879 17.4916 39.6662 17.3083 39.5112 17.1533L34.5129 12.1549C33.8612 11.5033 32.8079 11.5033 32.1562 12.1549C31.5046 12.8066 31.5046 13.8599 32.1562 14.5116L34.3112 16.6666H30.0012V1.66656C30.0011 0.746641 29.2561 0 28.3345 0H1.66786C1.60786 0 1.5545 0.025 1.49622 0.0316406C1.41622 0.04 1.34622 0.0532813 1.26958 0.0732813C1.09622 0.116641 0.937939 0.184922 0.791221 0.278281C0.75458 0.301641 0.707861 0.303281 0.672861 0.329922C0.659502 0.34 0.654502 0.358359 0.641143 0.368359C0.459502 0.511641 0.307861 0.686641 0.197861 0.895C0.174502 0.94 0.169502 0.988359 0.151221 1.035C0.0978613 1.16164 0.0395801 1.285 0.0195801 1.425C0.0112207 1.475 0.0262207 1.52164 0.0245801 1.57C0.0229395 1.60336 0.0012207 1.63336 0.0012207 1.66664V35C0.0012207 35.795 0.562861 36.4784 1.34122 36.6334L18.0079 39.9667C18.1162 39.9901 18.2262 40.0001 18.3345 40.0001C18.7161 40.0001 19.0911 39.8684 19.3911 39.6217C19.7761 39.3051 20.0011 38.8334 20.0011 38.3334V36.6667H28.3345C29.2561 36.6667 30.0011 35.9201 30.0011 35.0001V20H34.3111L32.1561 22.155C31.5045 22.8066 31.5045 23.86 32.1561 24.5116C32.4811 24.8366 32.9078 25 33.3345 25C33.7612 25 34.1879 24.8366 34.5129 24.5116L39.5112 19.5133C39.6662 19.3583 39.7879 19.1749 39.8729 18.9699C40.0411 18.5634 40.0411 18.1034 39.8729 17.6966ZM14.9511 25.405C14.7611 26.1616 14.0828 26.6666 13.3361 26.6666C13.2028 26.6666 13.0661 26.6516 12.9311 26.6166L9.59778 25.7833C8.70442 25.5599 8.16114 24.6549 8.38442 23.7616C8.60606 22.87 9.50778 22.3216 10.4044 22.55L13.7378 23.3834C14.6311 23.6066 15.1745 24.5116 14.9511 25.405ZM26.6679 33.3334H20.0012V6.66664C20.0012 5.93164 19.5179 5.28164 18.8129 5.07L13.0245 3.33336H26.6679V33.3334Z" fill="#835AFD"/>
</svg>
