<svg width="157" height="75" viewBox="0 0 157 75" fill="none" xmlns="http://www.w3.org/2000/svg">
<path d="M0 18.999H4.47282V40.2735H0V18.999Z" fill="white"/>
<path d="M22.5871 32.6185C22.5871 32.6759 22.5584 33.0773 22.5011 33.8227H10.8316C11.0419 34.7785 11.5388 35.5335 12.3225 36.0878C13.1062 36.6421 14.0811 36.9193 15.2471 36.9193C16.0499 36.9193 16.7571 36.8046 17.3688 36.5752C17.9996 36.3268 18.5826 35.9445 19.1178 35.4284L21.4976 38.0088C20.0448 39.6718 17.9231 40.5033 15.1324 40.5033C13.393 40.5033 11.8542 40.1688 10.5162 39.4998C9.17816 38.8117 8.14597 37.8655 7.41961 36.6613C6.69326 35.457 6.33008 34.0903 6.33008 32.5612C6.33008 31.0511 6.6837 29.694 7.39094 28.4898C8.1173 27.2664 9.1017 26.3203 10.3442 25.6512C11.6058 24.9631 13.0107 24.6191 14.559 24.6191C16.069 24.6191 17.4357 24.944 18.659 25.5939C19.8824 26.2438 20.8381 27.1804 21.5262 28.4037C22.2335 29.608 22.5871 31.0129 22.5871 32.6185ZM14.5876 28.0023C13.5746 28.0023 12.724 28.2891 12.0358 28.8625C11.3477 29.4359 10.9272 30.2196 10.7743 31.2136H18.3723C18.2194 30.2388 17.7989 29.4646 17.1108 28.8912C16.4226 28.2986 15.5816 28.0023 14.5876 28.0023Z" fill="white"/>
<path d="M34.3671 39.5285C33.9275 39.8534 33.3827 40.1019 32.7328 40.2739C32.102 40.4268 31.433 40.5033 30.7258 40.5033C28.8908 40.5033 27.4667 40.035 26.4537 39.0984C25.4597 38.1618 24.9627 36.7855 24.9627 34.9696V28.6331H22.583V25.1925H24.9627V21.4365H29.4355V25.1925H33.2776V28.6331H29.4355V34.9123C29.4355 35.5622 29.598 36.0687 29.923 36.4319C30.267 36.7759 30.7449 36.948 31.3566 36.948C32.0638 36.948 32.6659 36.7568 33.1629 36.3745L34.3671 39.5285Z" fill="white"/>
<path d="M55.4864 24.6191C57.417 24.6191 58.9461 25.1925 60.0739 26.3394C61.2208 27.4671 61.7942 29.1683 61.7942 31.443V40.2739H57.3214V32.1311C57.3214 30.9078 57.0633 29.9998 56.5473 29.4073C56.0503 28.7956 55.3335 28.4898 54.3969 28.4898C53.3456 28.4898 52.5141 28.8338 51.9024 29.522C51.2907 30.191 50.9849 31.1945 50.9849 32.5325V40.2739H46.5121V32.1311C46.5121 29.7035 45.5372 28.4898 43.5875 28.4898C42.5554 28.4898 41.7334 28.8338 41.1218 29.522C40.5101 30.191 40.2043 31.1945 40.2043 32.5325V40.2739H35.7314V24.8484H40.0036V26.6261C40.577 25.9762 41.2747 25.4792 42.0966 25.1352C42.9377 24.7911 43.8552 24.6191 44.8491 24.6191C45.9386 24.6191 46.923 24.8389 47.8023 25.2785C48.6816 25.699 49.3888 26.3203 49.924 27.1422C50.5548 26.3394 51.3481 25.7181 52.3038 25.2785C53.2787 24.8389 54.3395 24.6191 55.4864 24.6191Z" fill="white"/>
<path d="M79.9347 32.6185C79.9347 32.6759 79.906 33.0773 79.8487 33.8227H68.1792C68.3894 34.7785 68.8864 35.5335 69.6701 36.0878C70.4538 36.6421 71.4287 36.9193 72.5947 36.9193C73.3975 36.9193 74.1047 36.8046 74.7164 36.5752C75.3472 36.3268 75.9302 35.9445 76.4654 35.4284L78.8451 38.0088C77.3924 39.6718 75.2707 40.5033 72.48 40.5033C70.7405 40.5033 69.2018 40.1688 67.8638 39.4998C66.5258 38.8117 65.4936 37.8655 64.7672 36.6613C64.0409 35.457 63.6777 34.0903 63.6777 32.5612C63.6777 31.0511 64.0313 29.694 64.7386 28.4898C65.4649 27.2664 66.4493 26.3203 67.6918 25.6512C68.9533 24.9631 70.3582 24.6191 71.9065 24.6191C73.4166 24.6191 74.7833 24.944 76.0066 25.5939C77.23 26.2438 78.1857 27.1804 78.8738 28.4037C79.581 29.608 79.9347 31.0129 79.9347 32.6185ZM71.9352 28.0023C70.9221 28.0023 70.0715 28.2891 69.3834 28.8625C68.6953 29.4359 68.2748 30.2196 68.1218 31.2136H75.7199C75.567 30.2388 75.1465 29.4646 74.4583 28.8912C73.7702 28.2986 72.9292 28.0023 71.9352 28.0023Z" fill="white"/>
<path d="M106.086 24.8484L103.018 40.2739H98.7747L99.0615 38.7543C97.7808 39.9203 96.2038 40.5033 94.3306 40.5033C93.1264 40.5033 92.0177 40.2261 91.0047 39.6718C89.9916 39.1175 89.1792 38.3242 88.5675 37.292C87.975 36.2407 87.6787 35.0078 87.6787 33.5934C87.6787 31.8922 88.0514 30.363 88.7969 29.0059C89.5615 27.6296 90.5937 26.5592 91.8935 25.7946C93.1933 25.0109 94.6269 24.6191 96.1943 24.6191C98.5645 24.6191 100.237 25.3932 101.212 26.9415L101.613 24.8484H106.086ZM95.7068 36.8046C96.5861 36.8046 97.3698 36.5944 98.0579 36.1738C98.7461 35.7342 99.2813 35.1321 99.6636 34.3675C100.046 33.6029 100.237 32.7237 100.237 31.7297C100.237 30.6784 99.9216 29.8469 99.2908 29.2352C98.6792 28.6236 97.819 28.3177 96.7104 28.3177C95.8311 28.3177 95.0474 28.5376 94.3593 28.9772C93.6711 29.3977 93.1359 29.9903 92.7536 30.7548C92.3713 31.5194 92.1802 32.3987 92.1802 33.3927C92.1802 34.444 92.486 35.2755 93.0977 35.8871C93.7285 36.4988 94.5982 36.8046 95.7068 36.8046Z" fill="url(#paint0_linear_131_2)"/>
<path d="M111.632 40.5033C110.294 40.5033 109.023 40.3599 107.819 40.0732C106.634 39.7674 105.707 39.3755 105.038 38.8977L106.758 35.6577C107.427 36.0974 108.239 36.451 109.195 36.7186C110.17 36.9862 111.145 37.12 112.119 37.12C113.133 37.12 113.888 36.9958 114.385 36.7473C114.882 36.4797 115.13 36.1069 115.13 35.6291C115.13 35.2468 114.91 34.9696 114.471 34.7976C114.031 34.6256 113.324 34.444 112.349 34.2528C111.24 34.0426 110.323 33.8132 109.596 33.5647C108.889 33.3162 108.268 32.9148 107.733 32.3605C107.217 31.787 106.959 31.0129 106.959 30.038C106.959 28.3368 107.666 27.0084 109.08 26.0527C110.514 25.0969 112.387 24.6191 114.7 24.6191C115.77 24.6191 116.812 24.7337 117.825 24.9631C118.838 25.1925 119.698 25.5079 120.406 25.9093L118.8 29.1779C117.538 28.3942 116.019 28.0023 114.241 28.0023C113.266 28.0023 112.521 28.1457 112.005 28.4324C111.508 28.7191 111.259 29.0823 111.259 29.522C111.259 29.9234 111.479 30.2196 111.919 30.4108C112.358 30.5828 113.094 30.774 114.127 30.9842C115.216 31.1945 116.105 31.4239 116.793 31.6723C117.5 31.9017 118.112 32.2936 118.628 32.8479C119.144 33.4022 119.402 34.1572 119.402 35.113C119.402 36.8333 118.676 38.1618 117.223 39.0984C115.79 40.035 113.926 40.5033 111.632 40.5033Z" fill="url(#paint1_linear_131_2)"/>
<path d="M131.595 31.5573L136.899 40.2735H131.71L128.04 34.2811L125.316 36.5462L124.57 40.2735H120.097L124.341 18.999H128.814L126.434 30.8978L133.831 24.848H139.652L131.595 31.5573Z" fill="url(#paint2_linear_131_2)"/>
<path d="M81.084 15.9024V8.73438C81.084 5.56737 83.6514 3 86.8184 3H148.463C151.63 3 154.198 5.56737 154.198 8.73438V48.8751C154.198 52.0421 151.63 54.6094 148.463 54.6094H138.428L141.782 70.2603C142.075 71.6282 140.436 72.563 139.408 71.6141L124.092 57.4766H86.8184C83.6514 57.4766 81.084 54.9093 81.084 51.7422V48.8751" stroke="url(#paint3_linear_131_2)" stroke-width="4.30079"/>
<defs>
<linearGradient id="paint0_linear_131_2" x1="87.6787" y1="18.9994" x2="99.7578" y2="53.1109" gradientUnits="userSpaceOnUse">
<stop stop-color="#485BFF"/>
<stop offset="1" stop-color="#FF59F8"/>
</linearGradient>
<linearGradient id="paint1_linear_131_2" x1="87.6788" y1="18.9994" x2="99.7579" y2="53.1109" gradientUnits="userSpaceOnUse">
<stop stop-color="#485BFF"/>
<stop offset="1" stop-color="#FF59F8"/>
</linearGradient>
<linearGradient id="paint2_linear_131_2" x1="87.6784" y1="18.999" x2="99.7575" y2="53.1105" gradientUnits="userSpaceOnUse">
<stop stop-color="#485BFF"/>
<stop offset="1" stop-color="#FF59F8"/>
</linearGradient>
<linearGradient id="paint3_linear_131_2" x1="81.084" y1="3" x2="141.295" y2="77.547" gradientUnits="userSpaceOnUse">
<stop stop-color="#485BFF"/>
<stop offset="1" stop-color="#FF59F8"/>
</linearGradient>
</defs>
</svg>
